<svg width="24" height="24" viewBox="0 0 24 24" fill="none" xmlns="http://www.w3.org/2000/svg">
<g id="fi_10759249" clip-path="url(#clip0_807_3183)">
<g id="Layer_x0020_1">
<path id="Vector" fill-rule="evenodd" clip-rule="evenodd" d="M18.3723 23.9985C15.5973 23.9985 13.3379 21.7391 13.3379 18.9641C13.3379 16.1891 15.5973 13.9297 18.3723 13.9297C21.1473 13.9297 23.4067 16.1891 23.4067 18.9641C23.4067 21.7391 21.1473 23.9985 18.3723 23.9985ZM18.091 21.7664C17.6302 21.7172 17.19 21.5962 16.8676 21.4297C16.7317 21.3594 16.6754 21.1907 16.7457 21.05C16.816 20.9094 16.9848 20.8579 17.1254 20.9282C17.7113 21.2328 18.8364 21.3547 19.4645 21.0594C19.7035 20.9469 19.8442 20.7922 19.8957 20.586C20.0035 20.1125 19.9707 19.7703 19.7973 19.5641C19.5254 19.2407 18.8973 19.2219 18.3817 19.2453C17.6973 19.2735 16.9379 19.236 16.5114 18.725C16.2207 18.3735 16.1504 17.8672 16.2957 17.2157C16.3801 16.836 16.6379 16.5407 17.0364 16.3532C17.3379 16.2137 17.708 16.1463 18.091 16.1358V15.711C18.091 15.5563 18.2176 15.4297 18.3723 15.4297C18.527 15.4297 18.6535 15.5563 18.6535 15.711V16.1593C19.113 16.2091 19.5517 16.3308 19.8723 16.4985C20.0082 16.5688 20.0645 16.7375 19.9942 16.8782C19.9238 17.0188 19.7551 17.0703 19.6145 17C19.0285 16.6953 17.9035 16.5782 17.2754 16.8688C17.0364 16.9813 16.8957 17.136 16.8442 17.3422C16.7363 17.8156 16.7692 18.1578 16.9426 18.3641C17.2145 18.6875 17.8426 18.7063 18.3582 18.6828C19.0426 18.6547 19.802 18.6922 20.2285 19.2032C20.5192 19.5547 20.5895 20.061 20.4442 20.7125C20.3598 21.0922 20.102 21.3875 19.7035 21.575C19.4046 21.7117 19.0357 21.7783 18.6535 21.7891V22.2172C18.6535 22.3719 18.527 22.4985 18.3723 22.4985C18.2176 22.4985 18.091 22.3719 18.091 22.2172V21.7664Z" fill="white"/>
<path id="Vector_2" fill-rule="evenodd" clip-rule="evenodd" d="M11.1887 21.7785C11.0649 21.7752 10.9414 21.7697 10.8183 21.7623C9.41944 21.5028 8.11324 20.4314 7.08852 18.682C6.79156 18.1754 6.52725 17.6272 6.29721 17.0452C7.80051 17.4956 9.46303 17.7456 11.1887 17.7714L11.1887 21.7785ZM8.63901 21.4083C6.81995 20.9186 5.15324 19.9587 3.78495 18.5904C2.41672 17.2222 1.45685 15.5555 0.967143 13.7365C1.54485 14.4997 2.35994 15.199 3.39038 15.803C4.05524 16.1925 4.78641 16.5282 5.56854 16.8067C5.84705 17.5889 6.18278 18.32 6.57225 18.9848C7.17629 20.0154 7.87569 20.8306 8.63901 21.4083ZM11.7844 17.7715C12.1944 17.7655 12.6031 17.7471 13.0089 17.7155C12.9152 18.1172 12.8656 18.5357 12.8656 18.9654C12.8656 19.8028 13.054 20.5971 13.39 21.3085C12.9877 21.5332 12.5756 21.6844 12.1571 21.7623C12.0331 21.7698 11.9088 21.7752 11.7844 21.7786L11.7844 17.7715ZM0.61315 11.5584C0.605802 11.4365 0.600341 11.3142 0.597019 11.1915H4.60395C4.63018 12.9154 4.88008 14.5763 5.33006 16.0781C4.74803 15.8481 4.19987 15.5837 3.69321 15.2867C1.94447 14.2624 0.873143 12.9567 0.61315 11.5584ZM5.20463 11.1915H11.1887V17.1707C9.35354 17.1425 7.59511 16.8541 6.03931 16.3359C5.52155 14.7815 5.23325 13.0248 5.20463 11.1915ZM11.7843 11.1915H17.7733C17.7609 11.9794 17.7 12.7568 17.5922 13.5141C15.5562 13.8044 13.875 15.2127 13.1929 17.0953C12.7277 17.1377 12.2565 17.1631 11.7843 17.1706L11.7843 11.1915ZM18.3692 11.1915H22.3762C22.3727 11.3233 22.3668 11.4548 22.3586 11.5858C22.1868 12.4641 21.693 13.3096 20.9002 14.0743C20.1426 13.6811 19.283 13.4586 18.3724 13.4586C18.3152 13.4586 18.2582 13.4597 18.2014 13.4615C18.3018 12.7195 18.3577 11.9598 18.3692 11.1915ZM22.006 13.7325C21.9267 14.0264 21.8349 14.3173 21.7307 14.6048C21.6342 14.5302 21.5352 14.4587 21.4338 14.3906C21.645 14.1768 21.8359 13.9572 22.006 13.7325ZM0.59668 10.5959C0.600002 10.4699 0.605516 10.3443 0.613103 10.219C0.873137 8.82071 1.94445 7.51509 3.69315 6.4907C4.19981 6.19373 4.74797 5.92939 5.33 5.69935C4.87917 7.20412 4.62914 8.86838 4.60372 10.5958L0.59668 10.5959ZM6.03924 5.44162C7.59503 4.92338 9.35348 4.63495 11.1886 4.60677V10.5958H5.2044C5.23214 8.75898 5.52055 6.99878 6.03924 5.44162ZM11.7843 4.60677C13.6232 4.63491 15.3816 4.92353 16.9384 5.44093C17.4572 6.99826 17.7457 8.75871 17.7735 10.5959H11.7843L11.7843 4.60677ZM17.6401 5.69501C18.2246 5.92488 18.7752 6.18905 19.2848 6.48576C21.0156 7.49964 22.0827 8.78908 22.3565 10.1712C22.3657 10.3122 22.3723 10.4538 22.3761 10.5958H18.3691C18.3433 8.86661 18.0923 7.2008 17.6401 5.69501ZM0.968773 8.03879C1.45974 6.22114 2.42044 4.55646 3.7849 3.19198C5.15266 1.82423 6.82068 0.864537 8.63893 0.374669C7.87564 0.951649 7.17579 1.76512 6.5722 2.79259C6.18273 3.45744 5.84695 4.18858 5.56846 4.97073C4.78633 5.24923 4.05519 5.58501 3.39033 5.97448C2.36088 6.57788 1.54638 7.27644 0.968773 8.03879ZM10.7794 0.0225219C10.9154 0.0138452 11.0518 0.00757359 11.1886 0.00391955V4.0061C9.46296 4.03191 7.80043 4.28189 6.29714 4.73231C6.52715 4.15028 6.79149 3.60209 7.08846 3.09543C8.10367 1.36231 9.3952 0.294554 10.7794 0.0225219ZM11.7843 0.00390625C11.9218 0.00757356 12.0588 0.0138585 12.1954 0.0225883C13.5817 0.294728 14.8701 1.36244 15.8895 3.09542C16.1867 3.60258 16.4513 4.15133 16.6814 4.73398C15.1767 4.28252 13.5121 4.03194 11.7843 4.00609L11.7843 0.00390625ZM14.3313 0.373442C16.1514 0.862921 17.8191 1.82307 19.188 3.19201C20.5544 4.55837 21.5136 6.22232 22.0039 8.03844C21.4263 7.27622 20.6119 6.57782 19.5826 5.97452C18.9172 5.58471 18.1853 5.2487 17.4024 4.97005C17.1243 4.19005 16.7893 3.46084 16.4007 2.7976C15.7965 1.76663 15.0957 0.951205 14.3313 0.373442Z" fill="white"/>
</g>
</g>
<defs>
<clipPath id="clip0_807_3183">
<rect width="24" height="24" fill="white"/>
</clipPath>
</defs>
</svg>
