<svg width="14" height="14" viewBox="0 0 14 14" fill="none" xmlns="http://www.w3.org/2000/svg">
<g id="fi_10760660">
<path id="Vector" fill-rule="evenodd" clip-rule="evenodd" d="M8.25466 13.8359C8.9508 12.8064 9.01495 11.6945 8.4471 10.5002C8.28919 11.1409 8.00033 11.5298 7.5805 11.6669C7.97037 10.5535 7.64459 9.35058 6.60315 8.05818C6.58067 9.39299 6.2599 10.3653 5.64081 10.9752C4.78796 11.8146 4.798 12.7619 5.67089 13.8171C2.04735 11.8888 1.53614 9.30248 4.13718 6.05834C4.29851 6.84206 4.68944 7.32323 5.31004 7.50184C4.63358 4.63127 5.34531 2.18534 7.4452 0.164062C7.45811 4.64972 8.83364 5.04842 10.5728 7.05072C12.4505 9.45358 11.347 12.2265 8.25466 13.8359Z" fill="url(#paint0_linear_807_2972)"/>
</g>
<defs>
<linearGradient id="paint0_linear_807_2972" x1="11.1975" y1="3.91639" x2="3.19803" y2="11.9159" gradientUnits="userSpaceOnUse">
<stop stop-color="#EF3E3D"/>
<stop offset="1" stop-color="#FFC828"/>
</linearGradient>
</defs>
</svg>
