<svg width="135" height="40" viewBox="0 0 135 40" fill="none" xmlns="http://www.w3.org/2000/svg">
<rect x="0.5" y="0.5" width="134" height="39" rx="6.5" fill="black"/>
<rect x="0.5" y="0.5" width="134" height="39" rx="6.5" stroke="#A6A6A6"/>
<path d="M81.5257 19.2004V21.4914H80.0896V22.9938H81.5257V28.0988C81.5257 29.842 82.3143 30.5392 84.2981 30.5392C84.6468 30.5392 84.9788 30.4977 85.2693 30.4479V28.9621C85.0203 28.987 84.8626 29.0036 84.5887 29.0036C83.7005 29.0036 83.3104 28.5886 83.3104 27.6423V22.9938H85.2693V21.4914H83.3104V19.2004H81.5257Z" fill="white"/>
<path d="M90.3232 30.6638C92.9628 30.6638 94.5815 28.8957 94.5815 25.9655C94.5815 23.0519 92.9545 21.2756 90.3232 21.2756C87.6835 21.2756 86.0566 23.0519 86.0566 25.9655C86.0566 28.8957 87.6752 30.6638 90.3232 30.6638ZM90.3232 29.0783C88.7709 29.0783 87.8994 27.9411 87.8994 25.9655C87.8994 24.0065 88.7709 22.861 90.3232 22.861C91.8671 22.861 92.747 24.0065 92.747 25.9655C92.747 27.9328 91.8671 29.0783 90.3232 29.0783Z" fill="white"/>
<path d="M95.9664 30.4894H97.7511V25.152C97.7511 23.882 98.7056 23.027 100.059 23.027C100.374 23.027 100.905 23.0851 101.055 23.1349V21.3752C100.864 21.3254 100.524 21.3005 100.258 21.3005C99.0792 21.3005 98.0748 21.9479 97.8175 22.8361H97.6846V21.4499H95.9664V30.4894Z" fill="white"/>
<path d="M105.486 22.7946C106.806 22.7946 107.669 23.716 107.711 25.1354H103.145C103.245 23.7243 104.166 22.7946 105.486 22.7946ZM107.702 28.049C107.37 28.7546 106.632 29.1447 105.552 29.1447C104.125 29.1447 103.203 28.1403 103.145 26.5549V26.4553H109.529V25.8327C109.529 22.9938 108.009 21.2756 105.494 21.2756C102.946 21.2756 101.327 23.11 101.327 25.9987C101.327 28.8874 102.913 30.6638 105.503 30.6638C107.57 30.6638 109.014 29.6677 109.421 28.049H107.702Z" fill="white"/>
<path d="M69.8221 27.1513C69.9598 29.371 71.8095 30.7906 74.5626 30.7906C77.505 30.7906 79.3462 29.3021 79.3462 26.9276C79.3462 25.0606 78.2966 24.0282 75.7499 23.4346L74.382 23.099C72.7645 22.7205 72.1106 22.2129 72.1106 21.3267C72.1106 20.2082 73.1259 19.4769 74.6487 19.4769C76.0941 19.4769 77.0921 20.191 77.2727 21.3353H79.1483C79.0365 19.2446 77.1953 17.7734 74.6745 17.7734C71.9644 17.7734 70.1576 19.2446 70.1576 21.4557C70.1576 23.2797 71.1815 24.3637 73.427 24.8885L75.0272 25.2757C76.6705 25.6629 77.3932 26.2307 77.3932 27.1771C77.3932 28.2783 76.2575 29.0785 74.7089 29.0785C73.0484 29.0785 71.8955 28.33 71.7321 27.1513H69.8221Z" fill="white"/>
<path d="M51.3348 21.3005C50.1063 21.3005 49.0437 21.9147 48.4959 22.944H48.3631V21.4499H46.6448V33.4943H48.4295V29.1198H48.5706C49.0437 30.0744 50.0647 30.6388 51.3514 30.6388C53.6341 30.6388 55.0867 28.8376 55.0867 25.9655C55.0867 23.0934 53.6341 21.3005 51.3348 21.3005ZM50.8284 29.0368C49.3343 29.0368 48.3963 27.8581 48.3963 25.9738C48.3963 24.0812 49.3343 22.9025 50.8367 22.9025C52.3475 22.9025 53.2522 24.0563 53.2522 25.9655C53.2522 27.883 52.3475 29.0368 50.8284 29.0368Z" fill="white"/>
<path d="M61.3316 21.3005C60.103 21.3005 59.0405 21.9147 58.4927 22.944H58.3599V21.4499H56.6416V33.4943H58.4263V29.1198H58.5674C59.0405 30.0744 60.0615 30.6388 61.3482 30.6388C63.6309 30.6388 65.0835 28.8376 65.0835 25.9655C65.0835 23.0934 63.6309 21.3005 61.3316 21.3005ZM60.8252 29.0368C59.3311 29.0368 58.3931 27.8581 58.3931 25.9738C58.3931 24.0812 59.3311 22.9025 60.8335 22.9025C62.3443 22.9025 63.249 24.0563 63.249 25.9655C63.249 27.883 62.3443 29.0368 60.8252 29.0368Z" fill="white"/>
<path d="M43.4428 30.4894H45.4905L41.008 18.0746H38.9346L34.4521 30.4894H36.431L37.5752 27.1943H42.3072L43.4428 30.4894ZM39.8724 20.3287H40.0186L41.8168 25.5768H38.0656L39.8724 20.3287Z" fill="white"/>
<path d="M35.6514 8.70874V14.6978H37.8137C39.5984 14.6978 40.6318 13.5979 40.6318 11.6846C40.6318 9.80029 39.5901 8.70874 37.8137 8.70874H35.6514ZM36.5811 9.55542H37.71C38.9509 9.55542 39.6855 10.344 39.6855 11.697C39.6855 13.0708 38.9634 13.8511 37.71 13.8511H36.5811V9.55542Z" fill="white"/>
<path d="M43.7969 14.7849C45.1167 14.7849 45.9261 13.9009 45.9261 12.4358C45.9261 10.979 45.1126 10.0908 43.7969 10.0908C42.4771 10.0908 41.6636 10.979 41.6636 12.4358C41.6636 13.9009 42.4729 14.7849 43.7969 14.7849ZM43.7969 13.9922C43.0208 13.9922 42.585 13.4236 42.585 12.4358C42.585 11.4563 43.0208 10.8835 43.7969 10.8835C44.5689 10.8835 45.0088 11.4563 45.0088 12.4358C45.0088 13.4194 44.5689 13.9922 43.7969 13.9922Z" fill="white"/>
<path d="M52.8182 10.178H51.9259L51.1207 13.627H51.0501L50.1205 10.178H49.2655L48.3358 13.627H48.2694L47.4601 10.178H46.5553L47.8004 14.6978H48.7176L49.6473 11.3691H49.7179L50.6517 14.6978H51.5772L52.8182 10.178Z" fill="white"/>
<path d="M53.8458 14.6978H54.7382V12.054C54.7382 11.3484 55.1574 10.9084 55.8173 10.9084C56.4772 10.9084 56.7926 11.2695 56.7926 11.9958V14.6978H57.685V11.7717C57.685 10.6968 57.1288 10.0908 56.1203 10.0908C55.4396 10.0908 54.9914 10.3938 54.7714 10.896H54.705V10.178H53.8458V14.6978Z" fill="white"/>
<path d="M59.0903 14.6978H59.9826V8.41406H59.0903V14.6978Z" fill="white"/>
<path d="M63.3386 14.7849C64.6584 14.7849 65.4678 13.9009 65.4678 12.4358C65.4678 10.979 64.6543 10.0908 63.3386 10.0908C62.0188 10.0908 61.2053 10.979 61.2053 12.4358C61.2053 13.9009 62.0146 14.7849 63.3386 14.7849ZM63.3386 13.9922C62.5625 13.9922 62.1267 13.4236 62.1267 12.4358C62.1267 11.4563 62.5625 10.8835 63.3386 10.8835C64.1106 10.8835 64.5505 11.4563 64.5505 12.4358C64.5505 13.4194 64.1106 13.9922 63.3386 13.9922Z" fill="white"/>
<path d="M68.1265 14.0212C67.6409 14.0212 67.2881 13.7847 67.2881 13.3779C67.2881 12.9795 67.5704 12.7678 68.1929 12.7263L69.2969 12.6558V13.0334C69.2969 13.5938 68.7989 14.0212 68.1265 14.0212ZM67.8982 14.7725C68.4917 14.7725 68.9856 14.5151 69.2554 14.0627H69.326V14.6978H70.1851V11.6099C70.1851 10.6553 69.5459 10.0908 68.4129 10.0908C67.3877 10.0908 66.6573 10.5889 66.566 11.365H67.4292C67.5289 11.0454 67.8733 10.8628 68.3714 10.8628C68.9815 10.8628 69.2969 11.1326 69.2969 11.6099V12L68.0726 12.0706C66.9976 12.137 66.3916 12.606 66.3916 13.4194C66.3916 14.2454 67.0267 14.7725 67.8982 14.7725Z" fill="white"/>
<path d="M73.2132 14.7725C73.8358 14.7725 74.3629 14.4778 74.6327 13.9839H74.7032V14.6978H75.5582V8.41406H74.6659V10.896H74.5995C74.3546 10.3979 73.8316 10.1033 73.2132 10.1033C72.0719 10.1033 71.3373 11.0081 71.3373 12.4358C71.3373 13.8677 72.0636 14.7725 73.2132 14.7725ZM73.4664 10.9043C74.2135 10.9043 74.6825 11.4978 74.6825 12.4399C74.6825 13.3862 74.2176 13.9714 73.4664 13.9714C72.711 13.9714 72.2586 13.3945 72.2586 12.4358C72.2586 11.4854 72.7152 10.9043 73.4664 10.9043Z" fill="white"/>
<path d="M81.3447 14.7849C82.6645 14.7849 83.4738 13.9009 83.4738 12.4358C83.4738 10.979 82.6604 10.0908 81.3447 10.0908C80.0249 10.0908 79.2114 10.979 79.2114 12.4358C79.2114 13.9009 80.0207 14.7849 81.3447 14.7849ZM81.3447 13.9922C80.5686 13.9922 80.1328 13.4236 80.1328 12.4358C80.1328 11.4563 80.5686 10.8835 81.3447 10.8835C82.1166 10.8835 82.5566 11.4563 82.5566 12.4358C82.5566 13.4194 82.1166 13.9922 81.3447 13.9922Z" fill="white"/>
<path d="M84.655 14.6978H85.5474V12.054C85.5474 11.3484 85.9666 10.9084 86.6265 10.9084C87.2864 10.9084 87.6018 11.2695 87.6018 11.9958V14.6978H88.4941V11.7717C88.4941 10.6968 87.938 10.0908 86.9294 10.0908C86.2488 10.0908 85.8005 10.3938 85.5806 10.896H85.5142V10.178H84.655V14.6978Z" fill="white"/>
<path d="M92.6039 9.05322V10.1987H91.8858V10.95H92.6039V13.5024C92.6039 14.374 92.9981 14.7227 93.9901 14.7227C94.1644 14.7227 94.3304 14.7019 94.4757 14.677V13.9341C94.3512 13.9465 94.2723 13.9548 94.1353 13.9548C93.6913 13.9548 93.4962 13.7473 93.4962 13.2742V10.95H94.4757V10.1987H93.4962V9.05322H92.6039Z" fill="white"/>
<path d="M95.6735 14.6978H96.5658V12.0581C96.5658 11.3733 96.9726 10.9126 97.703 10.9126C98.3339 10.9126 98.6701 11.2778 98.6701 12V14.6978H99.5624V11.78C99.5624 10.7051 98.9689 10.095 98.006 10.095C97.3253 10.095 96.848 10.3979 96.6281 10.9043H96.5575V8.41406H95.6735V14.6978Z" fill="white"/>
<path d="M102.781 10.8503C103.441 10.8503 103.873 11.311 103.894 12.0208H101.611C101.661 11.3152 102.122 10.8503 102.781 10.8503ZM103.89 13.4775C103.724 13.8303 103.354 14.0254 102.815 14.0254C102.101 14.0254 101.64 13.5232 101.611 12.7305V12.6807H104.803V12.3694C104.803 10.95 104.043 10.0908 102.786 10.0908C101.511 10.0908 100.702 11.0081 100.702 12.4524C100.702 13.8967 101.495 14.7849 102.79 14.7849C103.823 14.7849 104.545 14.2869 104.749 13.4775H103.89Z" fill="white"/>
<path d="M24.769 20.2991C24.7907 18.6181 25.6934 17.0275 27.1256 16.147C26.2221 14.8567 24.7088 14.0386 23.1344 13.9894C21.4552 13.8131 19.8272 14.9942 18.9715 14.9942C18.0992 14.9942 16.7817 14.0069 15.363 14.0361C13.5137 14.0958 11.7898 15.1472 10.8901 16.7639C8.95607 20.1123 10.3987 25.0334 12.2513 27.74C13.1782 29.0654 14.2615 30.5458 15.6789 30.4933C17.066 30.4358 17.584 29.6088 19.2583 29.6088C20.9171 29.6088 21.4031 30.4933 22.8493 30.4599C24.3377 30.4358 25.2754 29.1287 26.1698 27.7908C26.8358 26.8464 27.3483 25.8027 27.6882 24.6983C25.9391 23.9585 24.771 22.1982 24.769 20.2991Z" fill="white"/>
<path d="M22.0373 12.2094C22.8489 11.2352 23.2487 9.98298 23.1518 8.71875C21.912 8.84897 20.7668 9.44153 19.9443 10.3784C19.14 11.2937 18.7214 12.5238 18.8006 13.7397C20.0408 13.7525 21.2601 13.176 22.0373 12.2094Z" fill="white"/>
</svg>
