<svg width="164" height="32" viewBox="0 0 164 32" fill="none" xmlns="http://www.w3.org/2000/svg">
<rect x="0.5" y="0.5" width="31" height="31" rx="15.5" fill="#006022"/>
<rect x="0.5" y="0.5" width="31" height="31" rx="15.5" stroke="#F9FAFB"/>
<path d="M22.384 12.0328C21.904 12.2408 21.408 12.3848 20.88 12.4488C21.424 12.1288 21.84 11.6168 22.032 10.9928C21.52 11.2968 20.96 11.5048 20.368 11.6328C19.888 11.1208 19.2 10.8008 18.448 10.8008C16.992 10.8008 15.824 11.9848 15.824 13.4248C15.824 13.6328 15.84 13.8248 15.888 14.0168C13.712 13.9208 11.792 12.8648 10.496 11.2808C9.56798 12.9448 10.608 14.3208 11.296 14.7848C10.88 14.7848 10.464 14.6568 10.112 14.4648C10.112 15.7608 11.024 16.8328 12.208 17.0728C11.952 17.1528 11.376 17.2008 11.024 17.1208C11.36 18.1608 12.336 18.9288 13.472 18.9448C12.576 19.6488 11.264 20.2088 9.58398 20.0328C10.752 20.7848 12.128 21.2168 13.616 21.2168C18.448 21.2168 21.072 17.2168 21.072 13.7608C21.072 13.6488 21.072 13.5368 21.056 13.4248C21.6 13.0248 22.048 12.5608 22.384 12.0328Z" fill="#EAECF0"/>
<rect x="44" width="32" height="32" rx="16" fill="#006022"/>
<path d="M58.4639 16.8332C58.4159 16.8332 57.3599 16.8332 56.8799 16.8332C56.6239 16.8332 56.5439 16.7372 56.5439 16.4972C56.5439 15.8572 56.5439 15.2012 56.5439 14.5612C56.5439 14.3052 56.6399 14.2252 56.8799 14.2252H58.4639C58.4639 14.1772 58.4639 13.2492 58.4639 12.8172C58.4639 12.1772 58.5759 11.5692 58.8959 11.0092C59.2319 10.4332 59.7119 10.0492 60.3199 9.82519C60.7199 9.68119 61.1199 9.61719 61.5519 9.61719H63.1199C63.3439 9.61719 63.4399 9.71319 63.4399 9.93719V11.7612C63.4399 11.9852 63.3439 12.0812 63.1199 12.0812C62.6879 12.0812 62.2559 12.0812 61.8239 12.0972C61.3919 12.0972 61.1679 12.3052 61.1679 12.7532C61.1519 13.2332 61.1679 13.6972 61.1679 14.1932H63.0239C63.2799 14.1932 63.3759 14.2892 63.3759 14.5452V16.4812C63.3759 16.7372 63.2959 16.8172 63.0239 16.8172C62.4479 16.8172 61.2159 16.8172 61.1679 16.8172V22.0332C61.1679 22.3052 61.0879 22.4012 60.7999 22.4012C60.1279 22.4012 59.4719 22.4012 58.7999 22.4012C58.5599 22.4012 58.4639 22.3052 58.4639 22.0652C58.4639 20.3852 58.4639 16.8812 58.4639 16.8332Z" fill="#EAECF0"/>
<rect x="88" width="32" height="32" rx="16" fill="#006022"/>
<g clip-path="url(#clip0_807_3348)">
<path d="M107.669 8H100.331C97.9429 8 96 9.94287 96 12.331V19.669C96 22.0571 97.9429 24 100.331 24H107.669C110.057 24 112 22.0571 112 19.669V12.331C112 9.94287 110.057 8 107.669 8ZM111.062 19.669C111.062 21.5399 109.54 23.062 107.669 23.062H100.331C98.4601 23.062 96.938 21.5399 96.938 19.669V12.331C96.938 10.4601 98.4601 8.93799 100.331 8.93799H107.669C109.54 8.93799 111.062 10.4601 111.062 12.331V19.669Z" fill="white"/>
<path d="M104 11.625C101.588 11.625 99.625 13.5875 99.625 15.9999C99.625 18.4122 101.588 20.3747 104 20.3747C106.412 20.3747 108.375 18.4122 108.375 15.9999C108.375 13.5875 106.412 11.625 104 11.625ZM104 19.4368C102.105 19.4368 100.563 17.895 100.563 15.9999C100.563 14.1049 102.105 12.563 104 12.563C105.895 12.563 107.437 14.1049 107.437 15.9999C107.437 17.895 105.895 19.4368 104 19.4368Z" fill="white"/>
<path d="M108.479 10.0703C107.766 10.0703 107.187 10.6503 107.187 11.363C107.187 12.0759 107.766 12.6559 108.479 12.6559C109.192 12.6559 109.772 12.0759 109.772 11.363C109.772 10.6501 109.192 10.0703 108.479 10.0703ZM108.479 11.7178C108.284 11.7178 108.125 11.5586 108.125 11.363C108.125 11.1674 108.284 11.0083 108.479 11.0083C108.675 11.0083 108.834 11.1674 108.834 11.363C108.834 11.5586 108.675 11.7178 108.479 11.7178Z" fill="white"/>
</g>
<rect x="132" width="32" height="32" rx="16" fill="#006022"/>
<path d="M154.4 22.4004V17.7124C154.4 15.4084 153.904 13.6484 151.216 13.6484C149.92 13.6484 149.056 14.3524 148.704 15.0244H148.672V13.8564H146.128V22.4004H148.784V18.1604C148.784 17.0404 148.992 15.9684 150.368 15.9684C151.728 15.9684 151.744 17.2324 151.744 18.2244V22.3844H154.4V22.4004Z" fill="white"/>
<path d="M141.808 13.8594H144.464V22.4034H141.808V13.8594Z" fill="white"/>
<path d="M143.136 9.60156C142.288 9.60156 141.6 10.2896 141.6 11.1376C141.6 11.9856 142.288 12.6896 143.136 12.6896C143.984 12.6896 144.672 11.9856 144.672 11.1376C144.672 10.2896 143.984 9.60156 143.136 9.60156Z" fill="white"/>
<defs>
<clipPath id="clip0_807_3348">
<rect width="16" height="16" fill="white" transform="translate(96 8)"/>
</clipPath>
</defs>
</svg>
